/* XPM */
static char * hide_pressed_xpm[] = {
"24 24 3 1",
" 	c None",
".	c #4D4D4D",
"+	c #A9A9A9",
"........................",
"........................",
"........................",
"........................",
"........................",
"........................",
"........................",
"........................",
"........................",
"........................",
"........................",
".......++++++++++.......",
".......++++++++++.......",
"........................",
"........................",
"........................",
"........................",
"........................",
"........................",
"........................",
"........................",
"........................",
"........................",
"........................"};
