/* XPM */
static char * close_pressed_xpm[] = {
"24 24 20 1",
" 	c None",
".	c #B8B8B8",
"+	c #9C9C9C",
"@	c #B1B1B1",
"#	c #B4B4B4",
"$	c #999999",
"%	c #666666",
"&	c #747474",
"*	c #797979",
"=	c #949494",
"-	c #737373",
";	c #6F6F6F",
">	c #ADADAD",
",	c #777777",
"'	c #727272",
")	c #717171",
"!	c #989898",
"~	c #909090",
"{	c #939393",
"]	c #8F8F8F",
"........................",
"........................",
"........................",
"........................",
"........................",
"........................",
"........................",
"........+@....#$........",
".......+%&@..#*%=.......",
".......@-%&@#*%;>.......",
"........@-%-,%;>........",
".........@'%%;>.........",
".........#,%%'@.........",
"........#*%;)%&@........",
".......#*%;>@-%&@.......",
".......!%;>..@-%~.......",
"........{>....@]........",
"........................",
"........................",
"........................",
"........................",
"........................",
"........................",
"........................"};
