/* XPM */
static char * stick_inactive_xpm[] = {
"24 24 3 1",
" 	c None",
".	c #F1F1F1",
"+	c #888888",
"........................",
"........................",
"........................",
"........................",
"........................",
"........................",
"........................",
"........................",
"...........++...........",
".........++++++.........",
".........++..++.........",
"........++....++........",
"........++....++........",
".........++..++.........",
".........++++++.........",
"...........++...........",
"........................",
"........................",
"........................",
"........................",
"........................",
"........................",
"........................",
"........................"};
