#define close_width 6
#define close_height 6
static unsigned char close_bits[] = {
   0x00, 0x00, 0x0a, 0x04, 0x0e, 0x00 };
