/* XPM */
static char * title_4_inactive_xpm[] = {
"4 28 3 1",
" 	c None",
".	c #EEEEEE",
"+	c #555555",
"....",
"....",
"....",
"....",
"++++",
"++++",
"++++",
"++++",
"++++",
"++++",
"++++",
"++++",
"++++",
"++++",
"++++",
"++++",
"++++",
"++++",
"++++",
"++++",
"++++",
"++++",
"++++",
"++++",
"++++",
"++++",
"++++",
"++++"};
