/* XPM */
static char * close_inactive_xpm[] = {
"24 28 19 1",
" 	c None",
".	c #EEEEEE",
"+	c #D0D0D0",
"@	c #BDBDBD",
"#	c #CBCBCB",
"$	c #CDCDCD",
"%	c #BBBBBB",
"&	c #9A9A9A",
"*	c #A3A3A3",
"=	c #A6A6A6",
"-	c #B8B8B8",
";	c #A2A2A2",
">	c #A0A0A0",
",	c #C9C9C9",
"'	c #A5A5A5",
")	c #9F9F9F",
"!	c #A1A1A1",
"~	c #B5B5B5",
"{	c #B7B7B7",
"........................",
"........................",
"........................",
"........................",
"++++++++++++++++++++++++",
"++++++++++++++++++++++++",
"++++++++++++++++++++++++",
"++++++++++++++++++++++++",
"++++++++++++++++++++++++",
"++++++++++++++++++++++++",
"++++++++++++++++++++++++",
"++++++++@#++++$%++++++++",
"+++++++@&*#++$=&-+++++++",
"+++++++#;&*#$=&>,+++++++",
"++++++++#;&*'&>,++++++++",
"+++++++++#;&&),+++++++++",
"+++++++++$'&&;#+++++++++",
"++++++++$=&)!&*#++++++++",
"+++++++$=&>,#;&*#+++++++",
"+++++++%&>,++#;&~+++++++",
"++++++++{,++++#~++++++++",
"++++++++++++++++++++++++",
"++++++++++++++++++++++++",
"++++++++++++++++++++++++",
"++++++++++++++++++++++++",
"++++++++++++++++++++++++",
"++++++++++++++++++++++++",
"++++++++++++++++++++++++"};
