/* XPM */
static char * maximize_inactive_xpm[] = {
"24 28 4 1",
" 	c None",
".	c #EEEEEE",
"+	c #D0D0D0",
"@	c #9C9C9C",
"........................",
"........................",
"........................",
"........................",
"++++++++++++++++++++++++",
"++++++++++++++++++++++++",
"++++++++++++++++++++++++",
"++++++++++++++++++++++++",
"++++++++++++++++++++++++",
"++++++++++++++++++++++++",
"++++++++++++++++++++++++",
"+++++++@@@@@@@@@@+++++++",
"+++++++@@@@@@@@@@+++++++",
"+++++++@@++++++@@+++++++",
"+++++++@@++++++@@+++++++",
"+++++++@@++++++@@+++++++",
"+++++++@@++++++@@+++++++",
"+++++++@@++++++@@+++++++",
"+++++++@@++++++@@+++++++",
"+++++++@@@@@@@@@@+++++++",
"+++++++@@@@@@@@@@+++++++",
"++++++++++++++++++++++++",
"++++++++++++++++++++++++",
"++++++++++++++++++++++++",
"++++++++++++++++++++++++",
"++++++++++++++++++++++++",
"++++++++++++++++++++++++",
"++++++++++++++++++++++++"};
