/* XPM */
static char * title_2_inactive_xpm[] = {
"4 28 3 1",
" 	c None",
".	c #EEEEEE",
"+	c #D0D0D0",
"....",
"....",
"....",
"....",
"++++",
"++++",
"++++",
"++++",
"++++",
"++++",
"++++",
"++++",
"++++",
"++++",
"++++",
"++++",
"++++",
"++++",
"++++",
"++++",
"++++",
"++++",
"++++",
"++++",
"++++",
"++++",
"++++",
"++++"};
