#define close_width 6
#define close_height 6
static unsigned char close_bits[] = {
   0x00, 0x00, 0x00, 0x00, 0x07, 0x00 };
