/* XPM */
static char * close_prelight_xpm[] = {
"24 24 22 1",
" 	c None",
".	c #B8B8B8",
"+	c #909090",
"@	c #AEAEAE",
"#	c #B2B2B2",
"$	c #8C8C8C",
"%	c #444444",
"&	c #585858",
"*	c #5F5F5F",
"=	c #858585",
"-	c #575757",
";	c #515151",
">	c #A8A8A8",
",	c #5D5D5D",
"'	c #565656",
")	c #505050",
"!	c #555555",
"~	c #545454",
"{	c #8A8A8A",
"]	c #808080",
"^	c #848484",
"/	c #7E7E7E",
"....................    ",
"......................  ",
"....................... ",
"....................... ",
"........................",
"........................",
"........................",
"........+@....#$........",
".......+%&@..#*%=.......",
".......@-%&@#*%;>.......",
"........@-%-,%;>........",
".........@'%%)>.........",
".........#,%%!@.........",
"........#*%)~%&@........",
".......#*%;>@-%&@.......",
".......{%;>..@-%].......",
"........^>....@/........",
"........................",
"........................",
"........................",
"........................",
"........................",
"........................",
"........................"};
