/* XPM */
static char * close_prelight_xpm[] = {
"24 24 23 1",
" 	c None",
".	c #3D3D3D",
"+	c #777777",
"@	c #4B4B4B",
"#	c #454545",
"$	c #7D7D7D",
"%	c #E7E7E7",
"&	c #C9C9C9",
"*	c #BFBFBF",
"=	c #878787",
"-	c #CBCBCB",
";	c #D3D3D3",
">	c #535353",
",	c #CACACA",
"'	c #C2C2C2",
")	c #CCCCCC",
"!	c #D4D4D4",
"~	c #CDCDCD",
"{	c #CECECE",
"]	c #7F7F7F",
"^	c #8F8F8F",
"/	c #898989",
"(	c #919191",
"........................",
"........................",
"........................",
"........................",
"........................",
"........................",
"........................",
"........+@....#$........",
".......+%&@..#*%=.......",
".......@-%&@#*%;>.......",
"........@-%,'%;>........",
".........@)%%!>.........",
".........#'%%~@.........",
"........#*%!{%&@........",
".......#*%;>@-%&@.......",
".......]%;>..@-%^.......",
"......../>....@(........",
"........................",
"........................",
"........................",
"........................",
"........................",
"........................",
"........................"};
